<mxfile host="app.diagrams.net" agent="Mozilla/5.0 (Windows NT 10.0; Win64; x64) AppleWebKit/537.36 (KHTML, like Gecko) Chrome/131.0.0.0 Safari/537.36" version="24.7.17">
  <diagram id="C5RBs43oDa-KdzZeNtuy" name="Page-1">
    <mxGraphModel dx="1062" dy="557" grid="1" gridSize="10" guides="1" tooltips="1" connect="1" arrows="1" fold="1" page="1" pageScale="1" pageWidth="827" pageHeight="1169" math="0" shadow="0">
      <root>
        <mxCell id="WIyWlLk6GJQsqaUBKTNV-0" />
        <mxCell id="WIyWlLk6GJQsqaUBKTNV-1" parent="WIyWlLk6GJQsqaUBKTNV-0" />
        <mxCell id="O8l359kmoXLnXYw3lkkX-22" style="edgeStyle=orthogonalEdgeStyle;rounded=0;orthogonalLoop=1;jettySize=auto;html=1;exitX=0.5;exitY=1;exitDx=0;exitDy=0;entryX=0.5;entryY=0;entryDx=0;entryDy=0;" edge="1" parent="WIyWlLk6GJQsqaUBKTNV-1" source="WIyWlLk6GJQsqaUBKTNV-10" target="O8l359kmoXLnXYw3lkkX-15">
          <mxGeometry relative="1" as="geometry" />
        </mxCell>
        <mxCell id="O8l359kmoXLnXYw3lkkX-32" value="No" style="edgeLabel;html=1;align=center;verticalAlign=middle;resizable=0;points=[];" vertex="1" connectable="0" parent="O8l359kmoXLnXYw3lkkX-22">
          <mxGeometry x="-0.5184" relative="1" as="geometry">
            <mxPoint x="10" as="offset" />
          </mxGeometry>
        </mxCell>
        <mxCell id="O8l359kmoXLnXYw3lkkX-57" style="edgeStyle=orthogonalEdgeStyle;rounded=0;orthogonalLoop=1;jettySize=auto;html=1;exitX=0;exitY=0.5;exitDx=0;exitDy=0;entryX=1;entryY=0.5;entryDx=0;entryDy=0;" edge="1" parent="WIyWlLk6GJQsqaUBKTNV-1" source="WIyWlLk6GJQsqaUBKTNV-10" target="O8l359kmoXLnXYw3lkkX-56">
          <mxGeometry relative="1" as="geometry" />
        </mxCell>
        <mxCell id="O8l359kmoXLnXYw3lkkX-58" value="Yes" style="edgeLabel;html=1;align=center;verticalAlign=middle;resizable=0;points=[];" vertex="1" connectable="0" parent="O8l359kmoXLnXYw3lkkX-57">
          <mxGeometry x="0.0679" y="-2" relative="1" as="geometry">
            <mxPoint y="-8" as="offset" />
          </mxGeometry>
        </mxCell>
        <mxCell id="WIyWlLk6GJQsqaUBKTNV-10" value="Does the&lt;div&gt;player die?&lt;/div&gt;" style="rhombus;whiteSpace=wrap;html=1;shadow=0;fontFamily=Helvetica;fontSize=12;align=center;strokeWidth=1;spacing=6;spacingTop=-4;" parent="WIyWlLk6GJQsqaUBKTNV-1" vertex="1">
          <mxGeometry x="460" y="250" width="100" height="80" as="geometry" />
        </mxCell>
        <mxCell id="O8l359kmoXLnXYw3lkkX-2" value="Player, map, traps and enemies spawn" style="shape=parallelogram;perimeter=parallelogramPerimeter;whiteSpace=wrap;html=1;fixedSize=1;" vertex="1" parent="WIyWlLk6GJQsqaUBKTNV-1">
          <mxGeometry x="220" y="110" width="203.75" height="50" as="geometry" />
        </mxCell>
        <mxCell id="O8l359kmoXLnXYw3lkkX-18" style="edgeStyle=orthogonalEdgeStyle;rounded=0;orthogonalLoop=1;jettySize=auto;html=1;exitX=0.5;exitY=1;exitDx=0;exitDy=0;entryX=0.5;entryY=0;entryDx=0;entryDy=0;" edge="1" parent="WIyWlLk6GJQsqaUBKTNV-1" source="O8l359kmoXLnXYw3lkkX-5" target="O8l359kmoXLnXYw3lkkX-14">
          <mxGeometry relative="1" as="geometry" />
        </mxCell>
        <mxCell id="O8l359kmoXLnXYw3lkkX-5" value="Player climbs up" style="rounded=1;whiteSpace=wrap;html=1;fontSize=12;glass=0;strokeWidth=1;shadow=0;" vertex="1" parent="WIyWlLk6GJQsqaUBKTNV-1">
          <mxGeometry x="450" y="115" width="120" height="40" as="geometry" />
        </mxCell>
        <mxCell id="O8l359kmoXLnXYw3lkkX-8" style="edgeStyle=orthogonalEdgeStyle;rounded=0;orthogonalLoop=1;jettySize=auto;html=1;exitX=1;exitY=0.5;exitDx=0;exitDy=0;entryX=0;entryY=0.5;entryDx=0;entryDy=0;" edge="1" parent="WIyWlLk6GJQsqaUBKTNV-1" source="O8l359kmoXLnXYw3lkkX-7" target="O8l359kmoXLnXYw3lkkX-43">
          <mxGeometry relative="1" as="geometry">
            <mxPoint x="64" y="130" as="targetPoint" />
          </mxGeometry>
        </mxCell>
        <mxCell id="O8l359kmoXLnXYw3lkkX-7" value="&lt;b&gt;A&lt;/b&gt;" style="ellipse;whiteSpace=wrap;html=1;aspect=fixed;" vertex="1" parent="WIyWlLk6GJQsqaUBKTNV-1">
          <mxGeometry x="10" y="120" width="20" height="20" as="geometry" />
        </mxCell>
        <mxCell id="O8l359kmoXLnXYw3lkkX-10" style="edgeStyle=orthogonalEdgeStyle;rounded=0;orthogonalLoop=1;jettySize=auto;html=1;exitX=1;exitY=0.5;exitDx=0;exitDy=0;entryX=0.061;entryY=0.391;entryDx=0;entryDy=0;entryPerimeter=0;" edge="1" parent="WIyWlLk6GJQsqaUBKTNV-1" source="O8l359kmoXLnXYw3lkkX-43" target="O8l359kmoXLnXYw3lkkX-2">
          <mxGeometry relative="1" as="geometry">
            <mxPoint x="184" y="130" as="sourcePoint" />
          </mxGeometry>
        </mxCell>
        <mxCell id="O8l359kmoXLnXYw3lkkX-13" style="edgeStyle=orthogonalEdgeStyle;rounded=0;orthogonalLoop=1;jettySize=auto;html=1;exitX=1;exitY=0.5;exitDx=0;exitDy=0;entryX=-0.012;entryY=0.497;entryDx=0;entryDy=0;entryPerimeter=0;" edge="1" parent="WIyWlLk6GJQsqaUBKTNV-1" source="O8l359kmoXLnXYw3lkkX-2" target="O8l359kmoXLnXYw3lkkX-5">
          <mxGeometry relative="1" as="geometry" />
        </mxCell>
        <mxCell id="O8l359kmoXLnXYw3lkkX-20" style="edgeStyle=orthogonalEdgeStyle;rounded=0;orthogonalLoop=1;jettySize=auto;html=1;exitX=0.5;exitY=1;exitDx=0;exitDy=0;entryX=0.5;entryY=0;entryDx=0;entryDy=0;" edge="1" parent="WIyWlLk6GJQsqaUBKTNV-1" source="O8l359kmoXLnXYw3lkkX-14" target="WIyWlLk6GJQsqaUBKTNV-10">
          <mxGeometry relative="1" as="geometry" />
        </mxCell>
        <mxCell id="O8l359kmoXLnXYw3lkkX-14" value="Player encounters enemy or trap" style="rounded=1;whiteSpace=wrap;html=1;fontSize=12;glass=0;strokeWidth=1;shadow=0;" vertex="1" parent="WIyWlLk6GJQsqaUBKTNV-1">
          <mxGeometry x="450" y="180" width="120" height="40" as="geometry" />
        </mxCell>
        <mxCell id="O8l359kmoXLnXYw3lkkX-35" style="edgeStyle=orthogonalEdgeStyle;rounded=0;orthogonalLoop=1;jettySize=auto;html=1;exitX=0.5;exitY=1;exitDx=0;exitDy=0;entryX=0.5;entryY=0;entryDx=0;entryDy=0;" edge="1" parent="WIyWlLk6GJQsqaUBKTNV-1" source="O8l359kmoXLnXYw3lkkX-15" target="O8l359kmoXLnXYw3lkkX-34">
          <mxGeometry relative="1" as="geometry" />
        </mxCell>
        <mxCell id="O8l359kmoXLnXYw3lkkX-15" value="Player continues" style="rounded=1;whiteSpace=wrap;html=1;fontSize=12;glass=0;strokeWidth=1;shadow=0;" vertex="1" parent="WIyWlLk6GJQsqaUBKTNV-1">
          <mxGeometry x="450" y="350" width="120" height="40" as="geometry" />
        </mxCell>
        <mxCell id="O8l359kmoXLnXYw3lkkX-41" style="edgeStyle=orthogonalEdgeStyle;rounded=0;orthogonalLoop=1;jettySize=auto;html=1;exitX=0;exitY=0.5;exitDx=0;exitDy=0;entryX=1;entryY=0.5;entryDx=0;entryDy=0;" edge="1" parent="WIyWlLk6GJQsqaUBKTNV-1" source="O8l359kmoXLnXYw3lkkX-33">
          <mxGeometry relative="1" as="geometry">
            <mxPoint x="404" y="542.5" as="targetPoint" />
          </mxGeometry>
        </mxCell>
        <mxCell id="O8l359kmoXLnXYw3lkkX-33" value="Player reaches end" style="rounded=1;whiteSpace=wrap;html=1;fontSize=12;glass=0;strokeWidth=1;shadow=0;" vertex="1" parent="WIyWlLk6GJQsqaUBKTNV-1">
          <mxGeometry x="450" y="522.5" width="120" height="40" as="geometry" />
        </mxCell>
        <mxCell id="O8l359kmoXLnXYw3lkkX-37" style="edgeStyle=orthogonalEdgeStyle;rounded=0;orthogonalLoop=1;jettySize=auto;html=1;exitX=0;exitY=0.5;exitDx=0;exitDy=0;entryX=1;entryY=0.5;entryDx=0;entryDy=0;" edge="1" parent="WIyWlLk6GJQsqaUBKTNV-1" source="O8l359kmoXLnXYw3lkkX-34" target="O8l359kmoXLnXYw3lkkX-36">
          <mxGeometry relative="1" as="geometry" />
        </mxCell>
        <mxCell id="O8l359kmoXLnXYw3lkkX-38" value="Yes" style="edgeLabel;html=1;align=center;verticalAlign=middle;resizable=0;points=[];" vertex="1" connectable="0" parent="O8l359kmoXLnXYw3lkkX-37">
          <mxGeometry x="-0.0466" y="-2" relative="1" as="geometry">
            <mxPoint y="-8" as="offset" />
          </mxGeometry>
        </mxCell>
        <mxCell id="O8l359kmoXLnXYw3lkkX-39" style="edgeStyle=orthogonalEdgeStyle;rounded=0;orthogonalLoop=1;jettySize=auto;html=1;exitX=0.5;exitY=1;exitDx=0;exitDy=0;entryX=0.5;entryY=0;entryDx=0;entryDy=0;" edge="1" parent="WIyWlLk6GJQsqaUBKTNV-1" source="O8l359kmoXLnXYw3lkkX-34" target="O8l359kmoXLnXYw3lkkX-33">
          <mxGeometry relative="1" as="geometry" />
        </mxCell>
        <mxCell id="O8l359kmoXLnXYw3lkkX-53" value="No" style="edgeLabel;html=1;align=center;verticalAlign=middle;resizable=0;points=[];" vertex="1" connectable="0" parent="O8l359kmoXLnXYw3lkkX-39">
          <mxGeometry x="0.1175" y="1" relative="1" as="geometry">
            <mxPoint x="10" y="-7" as="offset" />
          </mxGeometry>
        </mxCell>
        <mxCell id="O8l359kmoXLnXYw3lkkX-34" value="Does the&lt;div&gt;player run out of time?&lt;/div&gt;" style="rhombus;whiteSpace=wrap;html=1;shadow=0;fontFamily=Helvetica;fontSize=12;align=center;strokeWidth=1;spacing=6;spacingTop=-4;" vertex="1" parent="WIyWlLk6GJQsqaUBKTNV-1">
          <mxGeometry x="455" y="410" width="110" height="90" as="geometry" />
        </mxCell>
        <mxCell id="O8l359kmoXLnXYw3lkkX-36" value="&lt;b&gt;A&lt;/b&gt;" style="ellipse;whiteSpace=wrap;html=1;aspect=fixed;" vertex="1" parent="WIyWlLk6GJQsqaUBKTNV-1">
          <mxGeometry x="404" y="445" width="20" height="20" as="geometry" />
        </mxCell>
        <mxCell id="O8l359kmoXLnXYw3lkkX-60" style="edgeStyle=orthogonalEdgeStyle;rounded=0;orthogonalLoop=1;jettySize=auto;html=1;exitX=0;exitY=0.5;exitDx=0;exitDy=0;entryX=1;entryY=0.5;entryDx=0;entryDy=0;" edge="1" parent="WIyWlLk6GJQsqaUBKTNV-1" source="O8l359kmoXLnXYw3lkkX-42" target="O8l359kmoXLnXYw3lkkX-59">
          <mxGeometry relative="1" as="geometry" />
        </mxCell>
        <mxCell id="O8l359kmoXLnXYw3lkkX-42" value="Game end" style="ellipse;whiteSpace=wrap;html=1;" vertex="1" parent="WIyWlLk6GJQsqaUBKTNV-1">
          <mxGeometry x="284" y="515" width="120" height="50" as="geometry" />
        </mxCell>
        <mxCell id="O8l359kmoXLnXYw3lkkX-43" value="Game start" style="ellipse;whiteSpace=wrap;html=1;" vertex="1" parent="WIyWlLk6GJQsqaUBKTNV-1">
          <mxGeometry x="60" y="105" width="120" height="50" as="geometry" />
        </mxCell>
        <mxCell id="O8l359kmoXLnXYw3lkkX-47" style="edgeStyle=orthogonalEdgeStyle;rounded=0;orthogonalLoop=1;jettySize=auto;html=1;exitX=0.5;exitY=0;exitDx=0;exitDy=0;entryX=0.5;entryY=1;entryDx=0;entryDy=0;" edge="1" parent="WIyWlLk6GJQsqaUBKTNV-1" source="O8l359kmoXLnXYw3lkkX-44" target="O8l359kmoXLnXYw3lkkX-46">
          <mxGeometry relative="1" as="geometry" />
        </mxCell>
        <mxCell id="O8l359kmoXLnXYw3lkkX-48" value="No" style="edgeLabel;html=1;align=center;verticalAlign=middle;resizable=0;points=[];" vertex="1" connectable="0" parent="O8l359kmoXLnXYw3lkkX-47">
          <mxGeometry x="0.1482" y="-1" relative="1" as="geometry">
            <mxPoint x="9" y="4" as="offset" />
          </mxGeometry>
        </mxCell>
        <mxCell id="O8l359kmoXLnXYw3lkkX-51" style="edgeStyle=orthogonalEdgeStyle;rounded=0;orthogonalLoop=1;jettySize=auto;html=1;exitX=0;exitY=0.5;exitDx=0;exitDy=0;entryX=1;entryY=0.5;entryDx=0;entryDy=0;" edge="1" parent="WIyWlLk6GJQsqaUBKTNV-1" source="O8l359kmoXLnXYw3lkkX-44" target="O8l359kmoXLnXYw3lkkX-50">
          <mxGeometry relative="1" as="geometry" />
        </mxCell>
        <mxCell id="O8l359kmoXLnXYw3lkkX-44" value="Restart?" style="rhombus;whiteSpace=wrap;html=1;shadow=0;fontFamily=Helvetica;fontSize=12;align=center;strokeWidth=1;spacing=6;spacingTop=-4;" vertex="1" parent="WIyWlLk6GJQsqaUBKTNV-1">
          <mxGeometry x="130" y="415" width="100" height="85" as="geometry" />
        </mxCell>
        <mxCell id="O8l359kmoXLnXYw3lkkX-46" value="Back to main menu" style="rounded=1;whiteSpace=wrap;html=1;fontSize=12;glass=0;strokeWidth=1;shadow=0;" vertex="1" parent="WIyWlLk6GJQsqaUBKTNV-1">
          <mxGeometry x="120" y="350" width="120" height="40" as="geometry" />
        </mxCell>
        <mxCell id="O8l359kmoXLnXYw3lkkX-49" value="Yes" style="edgeLabel;html=1;align=center;verticalAlign=middle;resizable=0;points=[];" vertex="1" connectable="0" parent="WIyWlLk6GJQsqaUBKTNV-1">
          <mxGeometry x="110" y="447.5" as="geometry" />
        </mxCell>
        <mxCell id="O8l359kmoXLnXYw3lkkX-50" value="&lt;b&gt;A&lt;/b&gt;" style="ellipse;whiteSpace=wrap;html=1;aspect=fixed;" vertex="1" parent="WIyWlLk6GJQsqaUBKTNV-1">
          <mxGeometry x="70" y="447.5" width="20" height="20" as="geometry" />
        </mxCell>
        <mxCell id="O8l359kmoXLnXYw3lkkX-55" style="edgeStyle=orthogonalEdgeStyle;rounded=0;orthogonalLoop=1;jettySize=auto;html=1;exitX=0.5;exitY=1;exitDx=0;exitDy=0;entryX=0.5;entryY=0;entryDx=0;entryDy=0;" edge="1" parent="WIyWlLk6GJQsqaUBKTNV-1" source="O8l359kmoXLnXYw3lkkX-54" target="O8l359kmoXLnXYw3lkkX-43">
          <mxGeometry relative="1" as="geometry" />
        </mxCell>
        <mxCell id="O8l359kmoXLnXYw3lkkX-54" value="Start game from main menu" style="rounded=1;whiteSpace=wrap;html=1;fontSize=12;glass=0;strokeWidth=1;shadow=0;" vertex="1" parent="WIyWlLk6GJQsqaUBKTNV-1">
          <mxGeometry x="60" y="40" width="120" height="40" as="geometry" />
        </mxCell>
        <mxCell id="O8l359kmoXLnXYw3lkkX-56" value="&lt;b&gt;A&lt;/b&gt;" style="ellipse;whiteSpace=wrap;html=1;aspect=fixed;" vertex="1" parent="WIyWlLk6GJQsqaUBKTNV-1">
          <mxGeometry x="404" y="280" width="20" height="20" as="geometry" />
        </mxCell>
        <mxCell id="O8l359kmoXLnXYw3lkkX-61" style="edgeStyle=orthogonalEdgeStyle;rounded=0;orthogonalLoop=1;jettySize=auto;html=1;exitX=0.5;exitY=0;exitDx=0;exitDy=0;entryX=0.5;entryY=1;entryDx=0;entryDy=0;" edge="1" parent="WIyWlLk6GJQsqaUBKTNV-1" source="O8l359kmoXLnXYw3lkkX-59" target="O8l359kmoXLnXYw3lkkX-44">
          <mxGeometry relative="1" as="geometry" />
        </mxCell>
        <mxCell id="O8l359kmoXLnXYw3lkkX-59" value="Calculating result" style="rounded=1;whiteSpace=wrap;html=1;fontSize=12;glass=0;strokeWidth=1;shadow=0;" vertex="1" parent="WIyWlLk6GJQsqaUBKTNV-1">
          <mxGeometry x="120" y="520" width="120" height="40" as="geometry" />
        </mxCell>
      </root>
    </mxGraphModel>
  </diagram>
</mxfile>
